<svg width="1024" height="1024" viewBox="0 0 1024 1024" fill="none" xmlns="http://www.w3.org/2000/svg">
<path fill-rule="evenodd" clip-rule="evenodd" d="M689.698 0.292196C631.645 3.45717 587.005 9.51208 543.75 20.0878C419.438 50.4816 342.559 111.947 320.149 198.86C316.672 212.349 314.213 228.754 313.105 245.861L312.364 257.327L301.474 264.566C286.722 274.374 268.414 288.114 253.521 300.558C151.102 386.134 86.8471 499.138 72.4522 619.003C70.0425 639.074 69.2443 675.919 70.801 695.28C77.5778 779.593 111.962 855.638 170.797 916.437C220.574 967.875 284.006 1002.85 353.97 1017.44C381.854 1023.26 390.204 1024 427.562 1024C464.878 1024 472.977 1023.28 501.461 1017.47C604.993 996.335 695.775 927.367 745.451 832.109C780.682 764.55 793.091 686.473 780.853 609.353C763.94 502.769 697.768 408.198 602.672 354.701C557.728 329.417 499.075 311.653 449.973 308.452C430.959 307.214 428.506 307.854 414.282 317.778C394.339 331.691 375.802 347.69 352.321 371.254C320.365 403.323 296.204 433.187 275.572 466.116C265.85 481.635 247.559 516.173 248.542 517.157C248.835 517.449 253.821 512.728 259.624 506.666C280.073 485.301 300.521 470.332 327.112 457.264C387.299 427.686 453.861 424.89 514.895 449.376C589.395 479.265 644.4 546.629 658.571 625.336C670.522 691.705 653.353 759.89 611.337 812.919C603.886 822.324 585.673 840.743 576.008 848.65C528.557 887.465 465.526 906.792 405.456 900.946C341.521 894.725 283.792 863.432 243.065 812.919C171.79 724.516 158.868 619.888 204.855 503.537C239.563 415.725 306.216 335.948 403.022 266.353C486.097 206.629 590.507 155.409 706.76 117.35C730.161 109.689 778.922 95.4164 787.461 93.7286L791.222 92.9852L786.924 95.5195C784.561 96.9129 771.508 103.78 757.917 110.779C639.623 171.704 574.717 208.391 516.731 247.102C502.407 256.666 477.19 274.362 474.863 276.485C473.852 277.408 477.829 278.984 498.432 285.823C555.194 304.666 601.225 310.381 645.65 304.097C696.303 296.932 739.712 273.357 783.71 229.119C803.341 209.38 820.434 189.01 854.062 145.275C902.361 82.4622 923.821 58.1448 950.508 35.9814C952.419 34.3946 953.982 32.6628 953.982 32.1331C953.982 30.8106 928.818 23.0239 909.935 18.5031C880.736 11.5146 841.748 5.79598 799.279 2.27433C780.698 0.733746 706.29 -0.612388 689.698 0.292196Z" fill="#44A444"/>
</svg>
