<?xml version="1.0" encoding="utf-8"?>
<svg xmlns="http://www.w3.org/2000/svg" viewBox="13.5742 0.717 128 128.2432" width="128px" height="128.2432px"><g id="object-0" transform="matrix(1, 0, 0, 1, -32.80636215209961, -12.46065616607666)"><path d="M 139.323 20.857 C 140.748 21.471 142.496 22.452 143.741 23.349 C 144.846 24.146 145.759 25.125 146.516 25.898 C 147.14 26.536 147.464 27.049 148.046 27.654 C 148.693 28.328 149.515 28.809 150.255 29.75 C 150.857 30.516 151.594 31.546 152.21 32.64 C 153.766 34.789 155.413 37.184 156.145 38.473 C 156.921 39.838 157.108 40.475 157.392 41.532 C 157.675 42.59 157.433 43.589 157.845 44.817 C 158.368 46.377 160.054 48.363 160.677 50.141 C 161.258 51.8 161.393 52.703 161.583 55.126 C 161.904 59.22 161.883 69.656 161.583 73.931 C 161.397 76.59 161.185 77.528 160.677 79.595 C 160.086 81.997 158.961 85.284 158.071 87.525 C 157.331 89.39 157.052 90.031 155.806 92.283 C 153.65 96.18 148.206 105.098 144.93 109.956 C 142.286 113.876 139.295 117.271 137.68 119.698 C 136.612 121.303 136.506 122.057 135.528 123.437 C 134.298 125.171 132.825 127.107 130.6 129.271 C 127.655 132.134 121.628 137.245 118.705 139.013 C 116.919 140.094 115.973 140.259 114.513 140.599 C 113.03 140.945 111.26 141.075 109.868 141.053 C 108.654 141.033 107.666 140.876 106.583 140.599 C 105.475 140.316 104.453 140.023 103.298 139.353 C 101.894 138.539 100.032 137.116 98.823 135.785 C 97.685 134.532 97.479 133.122 96.161 131.65 C 94.43 129.716 90.884 127.641 88.741 125.363 C 86.679 123.171 84.745 119.74 83.473 118.282 C 82.717 117.416 82.479 117.529 81.717 116.64 C 80.397 115.099 77.707 111.511 76.166 108.936 C 74.724 106.525 73.98 104.709 72.654 101.686 C 70.89 97.662 68.272 91.178 66.537 86.393 C 64.966 82.058 63.373 77.152 62.572 74.158 C 62.04 72.169 61.831 71.043 61.666 69.626 C 61.515 68.341 61.554 67.588 61.552 66.001 C 61.55 63.821 61.569 59.631 61.743 57.079 C 61.417 55.368 61.167 53.22 61.213 51.614 C 61.263 49.827 61.484 48.765 62.119 46.743 C 63.026 43.855 65.372 38.51 66.877 35.641 C 68.019 33.463 68.804 32.315 70.162 30.543 C 71.722 28.506 73.729 26.063 75.883 24.142 C 78.08 22.184 80.712 20.208 83.246 18.931 C 84.227 18.437 85.168 18.05 86.133 17.722 C 87.344 17.063 88.68 16.452 90.333 15.883 C 92.874 15.009 96.953 13.977 99.645 13.576 C 101.37 13.319 103.421 13.294 104.631 13.31 C 104.791 13.294 104.953 13.281 105.118 13.27 C 105.944 13.217 106.834 13.212 107.729 13.302 C 108.074 13.277 108.436 13.256 108.793 13.246 C 110.251 13.207 111.975 13.114 114.067 13.246 C 116.737 13.415 121.242 13.732 123.708 14.4 C 124.408 14.589 125.013 14.801 125.562 15.036 C 126.197 15.211 126.815 15.418 127.369 15.636 C 128.093 15.921 128.697 16.206 129.32 16.586 C 131.379 17.265 133.42 18.067 134.904 18.705 C 136.348 19.325 137.285 19.81 138.325 20.465 C 138.656 20.583 138.989 20.713 139.323 20.857 Z" style="fill: rgb(255, 255, 255); stroke: rgb(255, 255, 255);"/><g transform="matrix(1, 0, 0, 1, 35.684811, 0.906282)"><g id="svg2" transform="matrix(1, 0, 0, 1, -155.973251, 3.153033)"><g id="layer1" transform="matrix(1, 0, 0, 1, 166.668976, -915.000671)"><g style="stroke:none;display:block" id="layer4" transform="matrix(0.08798405,0,0,0.08595212,-111.80137,1023.2879)"/><path style="fill-opacity: 1; fill-rule: nonzero; stroke: none; fill: rgb(50, 62, 86);" d="M 36.53125 6.1875 C 14.931315 16.467669 0 38.485908 0 64 C 0 99.346224 28.653776 128 64 128 C 14.531697 81.829584 3.1418965 24.79152 36.53125 6.1875 z M 64 128 C 99.346224 128 128 99.346224 128 64 C 128 38.485908 113.06868 16.467669 91.46875 6.1875 C 124.8581 24.79152 113.4683 81.829584 64 128 z " transform="translate(0,924.36218)" id="path2987"/><g id="g4912" transform="matrix(2.56,0,0,2.56,-181.12,-1367.765)" style="fill:#ffffff;stroke:none"/><path style="fill-opacity: 1; fill-rule: nonzero; stroke: none; fill: rgb(50, 62, 86);" id="path5263" d="M 88,18 C 88,27.941125 79.941125,36 70,36 60.058875,36 52,27.941125 52,18 52,8.0588745 60.058875,0 70,0 79.941125,0 88,8.0588745 88,18 z" transform="matrix(1.3142697,0,0,1.3142697,-27.998878,934.52855)"/></g></g></g></g></svg>